<svg width="50" height="50" viewBox="0 0 50 50" fill="none" xmlns="http://www.w3.org/2000/svg">
<path d="M25 0.618652C11.1875 0.618652 0 11.8124 0 25.6187C0 36.6666 7.1625 46.0353 17.0938 49.3374C18.3438 49.5728 18.8021 48.7999 18.8021 48.1353C18.8021 47.5416 18.7812 45.9687 18.7708 43.8853C11.8167 45.3937 10.35 40.5311 10.35 40.5311C9.2125 37.6457 7.56875 36.8749 7.56875 36.8749C5.30417 35.3249 7.74375 35.3562 7.74375 35.3562C10.2542 35.5312 11.5729 37.9312 11.5729 37.9312C13.8021 41.7541 17.425 40.6499 18.8542 40.0103C19.0792 38.3937 19.7229 37.2916 20.4375 36.6666C14.8854 36.0416 9.05 33.8916 9.05 24.3124C9.05 21.5832 10.0187 19.3541 11.6229 17.6041C11.3417 16.9728 10.4979 14.4312 11.8417 10.9874C11.8417 10.9874 13.9354 10.3166 18.7167 13.5499C20.7167 12.9937 22.8417 12.7187 24.9667 12.7062C27.0917 12.7187 29.2167 12.9937 31.2167 13.5499C35.9667 10.3166 38.0604 10.9874 38.0604 10.9874C39.4042 14.4312 38.5604 16.9728 38.3104 17.6041C39.9042 19.3541 40.8729 21.5832 40.8729 24.3124C40.8729 33.9166 35.0292 36.0312 29.4667 36.6457C30.3417 37.3957 31.1542 38.9291 31.1542 41.2707C31.1542 44.6166 31.1229 47.3041 31.1229 48.1166C31.1229 48.7728 31.5604 49.5541 32.8417 49.3041C42.8438 46.0249 50 36.6499 50 25.6187C50 11.8124 38.8062 0.618652 25 0.618652Z" fill="white"/>
</svg>
