<svg width="300" height="300" viewBox="0 0 300 300" fill="none" xmlns="http://www.w3.org/2000/svg">
<path d="M282 153.125C282 143.375 281.125 134 279.5 125H150V178.188H224C220.813 195.375 211.125 209.938 196.563 219.688V254.187H241C267 230.25 282 195 282 153.125Z" fill="#4285F4"/>
<path d="M150 287.5C187.125 287.5 218.25 275.187 241 254.187L196.562 219.688C184.25 227.938 168.5 232.812 150 232.812C114.188 232.812 83.875 208.625 73.0625 176.125H27.125V211.75C49.75 256.688 96.25 287.5 150 287.5Z" fill="#34A853"/>
<path d="M73.0625 176.125C70.3125 167.875 68.75 159.062 68.75 150C68.75 140.938 70.3125 132.125 73.0625 123.875V88.25H27.125C17.5 107.411 12.4915 128.558 12.5 150C12.5 172.188 17.8125 193.188 27.125 211.75L73.0625 176.125Z" fill="#FBBC05"/>
<path d="M150 67.1875C170.188 67.1875 188.312 74.125 202.562 87.75L242 48.3125C218.188 26.125 187.062 12.5 150 12.5C96.25 12.5 49.75 43.3125 27.125 88.25L73.0625 123.875C83.875 91.375 114.188 67.1875 150 67.1875Z" fill="#EA4335"/>
</svg>
