<svg width="43" height="50" viewBox="0 0 43 50" fill="none" xmlns="http://www.w3.org/2000/svg">
<path d="M24.2783 0.00111914C23.9009 0.0136447 23.5297 0.10072 23.1861 0.257328C22.8425 0.413936 22.5333 0.636983 22.2762 0.913619L11.0137 12.972L2.98458 21.5678C1.81521 22.8129 0.952729 24.3138 0.465832 25.9511C0.361489 26.3029 0.274577 26.6595 0.205415 27.0199C-0.106744 28.6503 -0.0626818 30.3289 0.334582 31.9407C0.51116 32.6678 0.754556 33.3771 1.06167 34.0595C1.69856 35.4771 2.59687 36.762 3.70958 37.847L12.62 46.5824L12.7012 46.6615C17.3846 51.172 24.8929 51.1053 29.4992 46.5074L34.4908 41.524C35.6158 40.399 35.6158 38.5782 34.4971 37.4511C34.2308 37.1834 33.9144 36.9709 33.5659 36.8257C33.2174 36.6805 32.8436 36.6054 32.4661 36.6048C32.0885 36.6043 31.7146 36.6782 31.3656 36.8223C31.0167 36.9664 30.6996 37.178 30.4325 37.4449L25.4408 42.4282C24.277 43.5769 22.7118 44.2274 21.0767 44.2422C19.4415 44.257 17.8648 43.6348 16.6804 42.5074L16.6387 42.4678L7.73041 33.7324C6.37208 32.399 5.70541 30.672 5.75541 29.0178C5.76533 28.651 5.81139 28.286 5.89291 27.9282C6.10231 27.0206 6.5471 26.1842 7.1825 25.5032L15.2096 16.9053C17.4137 14.5428 21.8846 14.2595 24.4387 16.3261L31.7325 22.224C32.9679 23.224 34.7762 23.0303 35.7742 21.7928C36.2525 21.1983 36.4757 20.4385 36.3949 19.6797C36.3141 18.921 35.9358 18.2252 35.3429 17.7449L28.0512 11.847C26.3846 10.499 24.3721 9.66987 22.2721 9.34279L26.47 4.84695C26.857 4.43087 27.1124 3.90973 27.2041 3.34898C27.2959 2.78823 27.2199 2.21286 26.9858 1.69514C26.7516 1.17742 26.3697 0.740421 25.888 0.439031C25.4063 0.13764 24.8463 -0.014708 24.2783 0.00111914ZM18.3075 26.699C17.9296 26.699 17.5554 26.7735 17.2063 26.9183C16.8572 27.063 16.5401 27.2752 16.2731 27.5426C16.0061 27.81 15.7944 28.1274 15.6501 28.4767C15.5059 28.826 15.432 29.2003 15.4325 29.5782C15.432 29.9561 15.5059 30.3304 15.6501 30.6797C15.7944 31.029 16.0061 31.3464 16.2731 31.6138C16.5401 31.8812 16.8572 32.0934 17.2063 32.2381C17.5554 32.3829 17.9296 32.4574 18.3075 32.4574H39.5012C39.8792 32.4574 40.2533 32.3829 40.6024 32.2381C40.9515 32.0934 41.2686 31.8812 41.5357 31.6138C41.8027 31.3464 42.0144 31.029 42.1586 30.6797C42.3028 30.3304 42.3768 29.9561 42.3762 29.5782C42.3768 29.2003 42.3028 28.826 42.1586 28.4767C42.0144 28.1274 41.8027 27.81 41.5357 27.5426C41.2686 27.2752 40.9515 27.063 40.6024 26.9183C40.2533 26.7735 39.8792 26.699 39.5012 26.699H18.3075Z" fill="#FFA116"/>
</svg>
