<svg width="50" height="50" viewBox="0 0 50 50" fill="none" xmlns="http://www.w3.org/2000/svg">
<g clip-path="url(#clip0_9_49)">
<rect width="50" height="50" fill="black"/>
<path d="M24.9563 0C11.8292 0 1.06459 10.125 0.0458374 22.9937L13.4458 28.5312C14.5813 27.7583 15.9521 27.3021 17.4292 27.3021C17.5604 27.3021 17.6896 27.3104 17.8208 27.3146L23.7813 18.6854V18.5625C23.7813 13.3646 28.0063 9.1375 33.2063 9.1375C38.4021 9.1375 42.6313 13.3687 42.6313 18.5688C42.6313 23.7687 38.4021 27.9958 33.2063 27.9958H32.9875L24.4958 34.0604C24.4958 34.1688 24.5042 34.2792 24.5042 34.3917C24.5042 38.2979 21.3479 41.4667 17.4417 41.4667C14.0354 41.4667 11.1583 39.0229 10.5021 35.7854L0.908337 31.8125C3.87917 42.3063 13.5125 50 24.9563 50C38.7625 50 49.9542 38.8062 49.9542 25C49.9542 11.1937 38.7604 0 24.9563 0ZM15.7083 37.9375L12.6396 36.6667C13.1854 37.7979 14.1271 38.7479 15.3771 39.2708C18.0792 40.3937 21.1958 39.1125 22.3188 36.4062C22.8667 35.0938 22.8688 33.6583 22.3292 32.3458C21.7896 31.0333 20.7667 30.0104 19.4604 29.4646C18.1604 28.9229 16.7729 28.9458 15.5479 29.4021L18.7208 30.7146C20.7125 31.5479 21.6563 33.8396 20.8229 35.8292C19.9958 37.8229 17.7021 38.7667 15.7083 37.9375ZM39.4896 18.5562C39.4896 15.0937 36.6708 12.275 33.2083 12.275C29.7396 12.275 26.9271 15.0937 26.9271 18.5562C26.9271 22.025 29.7396 24.8375 33.2083 24.8375C36.6729 24.8375 39.4896 22.025 39.4896 18.5562ZM28.5042 18.5458C28.5042 15.9375 30.6146 13.825 33.2229 13.825C35.825 13.825 37.9438 15.9375 37.9438 18.5458C37.9438 21.1521 35.825 23.2646 33.2229 23.2646C30.6125 23.2646 28.5042 21.1521 28.5042 18.5458Z" fill="white"/>
</g>
<defs>
<clipPath id="clip0_9_49">
<rect width="50" height="50" fill="white"/>
</clipPath>
</defs>
</svg>
